<svg width="24" height="19" viewBox="0 0 24 19" fill="none" xmlns="http://www.w3.org/2000/svg">
<path d="M8.44152 8.32394C9.4252 8.32394 10.2226 7.52585 10.2226 6.54135C10.2226 5.55685 9.4252 4.75876 8.44152 4.75876C7.45784 4.75876 6.66042 5.55685 6.66042 6.54135C6.66042 7.52585 7.45784 8.32394 8.44152 8.32394Z" fill="#3484EE"/>
<path d="M16.8586 6.77083C17.0817 6.88548 17.3471 6.72352 17.3471 6.47271V6.08971C17.3471 5.93607 17.2612 5.79533 17.1245 5.7251C16.2034 5.25165 15.1167 5.22412 14.1728 5.65033L14.0198 5.7194C13.8579 5.7925 13.7539 5.95366 13.7539 6.13129V6.43589C13.7539 6.71066 14.0375 6.8938 14.2879 6.78072L14.4452 6.70969C15.217 6.36122 16.1055 6.38372 16.8586 6.77083Z" fill="#3484EE"/>
<path d="M23.9699 16.0265L22.9692 9.98969L22.7128 10.4665C21.4247 12.8624 19.0066 14.4389 16.2946 14.6509C16.0616 14.6691 15.9281 14.9248 16.0463 15.1264L17.4377 17.4988C17.8325 18.1719 18.5544 18.5855 19.3348 18.5855H21.8002C23.1584 18.5855 24.192 17.3665 23.9699 16.0265Z" fill="url(#paint0_linear_22022_2628)"/>
<path fill-rule="evenodd" clip-rule="evenodd" d="M2.1456 18.5855H4.6654C5.44562 18.5855 6.16744 18.1721 6.56227 17.4991L8.79932 13.6864C8.93266 13.4592 9.17643 13.3196 9.43993 13.3196H15.6688C19.7907 13.3196 22.9229 9.61303 22.2352 5.54883C21.6932 2.34497 18.9182 0 15.6688 0H4.57407C3.49898 0 2.58146 0.777254 2.40472 1.83772L0.0297169 16.0877C-0.188198 17.3952 0.820078 18.5855 2.1456 18.5855ZM8.18085 3.39467C6.443 3.39467 5.03419 4.80348 5.03419 6.54134C5.03419 8.27919 6.443 9.688 8.18085 9.688H15.6717C17.4096 9.688 18.8184 8.27919 18.8184 6.54134C18.8184 4.80348 17.4096 3.39467 15.6717 3.39467H8.18085Z" fill="#253442"/>
<defs>
<linearGradient id="paint0_linear_22022_2628" x1="25.2907" y1="15.0106" x2="15.0011" y2="11.2658" gradientUnits="userSpaceOnUse">
<stop stop-color="#44D5DE"/>
<stop offset="0.34" stop-color="#3073F1"/>
<stop offset="1" stop-color="#EDC7FC"/>
</linearGradient>
</defs>
</svg>
