<svg width="1290" height="1000" viewBox="0 0 1290 1000" fill="none" xmlns="http://www.w3.org/2000/svg">
<path d="M453.732 447.873C506.604 447.873 549.466 404.931 549.466 351.96C549.466 298.989 506.604 256.047 453.732 256.047C400.859 256.047 357.997 298.989 357.997 351.96C357.997 404.931 400.859 447.873 453.732 447.873Z" fill="#3484EE"/>
<path d="M906.152 364.307C918.141 370.476 932.404 361.762 932.404 348.267V327.659C932.404 319.393 927.787 311.82 920.442 308.041C870.933 282.567 812.521 281.086 761.787 304.018L753.565 307.735C744.863 311.668 739.27 320.339 739.27 329.897V346.286C739.27 361.07 754.516 370.924 767.976 364.84L776.432 361.018C817.913 342.268 865.672 343.479 906.152 364.307Z" fill="#3484EE"/>
<path d="M1288.38 862.315L1234.59 537.5L1220.81 563.155C1151.58 692.07 1021.6 776.893 875.832 788.297C863.312 789.277 856.135 803.037 862.488 813.881L937.275 941.531C958.495 977.75 997.298 1000 1039.24 1000H1171.76C1244.77 1000 1300.32 934.412 1288.38 862.315Z" fill="url(#paint0_linear_7374_246)"/>
<path fill-rule="evenodd" clip-rule="evenodd" d="M115.326 1000H250.765C292.702 1000 331.5 977.758 352.722 941.55L472.963 736.406C480.131 724.178 493.233 716.667 507.396 716.667H842.197C1063.75 716.667 1232.1 517.234 1195.14 298.558C1166.01 126.172 1016.85 0 842.197 0H245.856C188.07 0 138.754 41.8205 129.254 98.8795L1.59728 865.609C-10.1156 935.959 44.0792 1000 115.326 1000ZM439.721 182.652C346.311 182.652 270.588 258.454 270.588 351.96C270.588 445.466 346.311 521.268 439.721 521.268H842.356C935.766 521.268 1011.49 445.466 1011.49 351.96C1011.49 258.454 935.766 182.652 842.356 182.652H439.721Z" fill="#253442"/>
<defs>
<linearGradient id="paint0_linear_7374_246" x1="1359.38" y1="807.655" x2="806.178" y2="606.532" gradientUnits="userSpaceOnUse">
<stop stop-color="#44D5DE"/>
<stop offset="0.34" stop-color="#3073F1"/>
<stop offset="1" stop-color="#EDC7FC"/>
</linearGradient>
</defs>
</svg>
