<svg width="800" height="800" viewBox="0 0 800 800" fill="none" xmlns="http://www.w3.org/2000/svg">
<path d="M400 0C703.316 0 800 96.6842 800 400C800 703.316 703.316 800 400 800C96.6841 800 0 703.316 0 400C0 96.6842 96.6841 0 400 0Z" fill="url(#paint0_linear_7425_57434)"/>
<path d="M316.969 377.425C339.921 377.425 358.528 358.784 358.528 335.789C358.528 312.793 339.921 294.152 316.969 294.152C294.016 294.152 275.41 312.793 275.41 335.789C275.41 358.784 294.016 377.425 316.969 377.425Z" fill="white"/>
<path d="M513.368 341.149C518.573 343.827 524.764 340.044 524.764 334.185V325.239C524.764 321.651 522.76 318.364 519.572 316.723C498.079 305.665 472.722 305.022 450.698 314.977L447.129 316.59C443.351 318.297 440.923 322.062 440.923 326.211V333.325C440.923 339.743 447.542 344.021 453.385 341.38L457.055 339.721C475.063 331.581 495.795 332.107 513.368 341.149Z" fill="white"/>
<path d="M679.297 557.338L655.947 416.333L649.965 427.47C619.909 483.434 563.486 520.256 500.206 525.206C494.771 525.632 491.655 531.605 494.413 536.313L526.879 591.726C536.091 607.449 552.936 617.108 571.144 617.108H628.671C660.363 617.108 684.479 588.636 679.297 557.338Z" fill="white"/>
<path fill-rule="evenodd" clip-rule="evenodd" d="M170.064 617.108H228.859C247.064 617.108 263.907 607.453 273.12 591.735L325.317 502.68C328.429 497.372 334.117 494.111 340.265 494.111H485.605C581.783 494.111 654.866 407.536 638.822 312.606C626.174 237.772 561.424 183 485.605 183H226.728C201.643 183 180.234 201.155 176.11 225.924L120.693 558.768C115.609 589.307 139.135 617.108 170.064 617.108ZM310.886 262.291C270.337 262.291 237.464 295.197 237.464 335.789C237.464 376.381 270.337 409.287 310.886 409.287H485.674C526.224 409.287 559.096 376.381 559.096 335.789C559.096 295.197 526.224 262.291 485.674 262.291H310.886Z" fill="#F0F7F8"/>
<defs>
<linearGradient id="paint0_linear_7425_57434" x1="400" y1="0" x2="400" y2="800" gradientUnits="userSpaceOnUse">
<stop stop-color="#3CA3FC"/>
<stop offset="1" stop-color="#EDC7FC"/>
</linearGradient>
</defs>
</svg>
