<svg width="20" height="20" viewBox="0 0 20 20" fill="none" xmlns="http://www.w3.org/2000/svg">
<rect x="0.5" y="0.5" width="19" height="19" rx="9.5" fill="#C7CFD4"/>
<rect x="0.5" y="0.5" width="19" height="19" rx="9.5" stroke="#677380"/>
<g opacity="0.65">
<path d="M8.51727 9.46839C8.92713 9.46839 9.25939 9.13585 9.25939 8.72565C9.25939 8.31545 8.92713 7.98291 8.51727 7.98291C8.1074 7.98291 7.77515 8.31545 7.77515 8.72565C7.77515 9.13585 8.1074 9.46839 8.51727 9.46839Z" fill="#677380"/>
<path d="M12.0244 8.82126C12.1173 8.86904 12.2279 8.80155 12.2279 8.69705V8.53747C12.2279 8.47345 12.1921 8.41481 12.1351 8.38555C11.7514 8.18828 11.2986 8.17681 10.9053 8.35439L10.8415 8.38317C10.7741 8.41363 10.7307 8.48078 10.7307 8.55479V8.68171C10.7307 8.79619 10.8489 8.8725 10.9532 8.82539L11.0188 8.79579C11.3403 8.65059 11.7106 8.65997 12.0244 8.82126Z" fill="#677380"/>
</g>
<path opacity="0.65" d="M14.9874 12.6777L14.5705 10.1624L14.4637 10.3611C13.927 11.3594 12.9194 12.0162 11.7894 12.1045C11.6924 12.1121 11.6367 12.2187 11.686 12.3026L12.2657 13.2911C12.4302 13.5716 12.731 13.7439 13.0562 13.7439H14.0834C14.6494 13.7439 15.08 13.236 14.9874 12.6777Z" fill="#677380"/>
<path fill-rule="evenodd" clip-rule="evenodd" d="M5.89399 13.7439H6.9439C7.26899 13.7439 7.56974 13.5717 7.73425 13.2913L8.66634 11.7027C8.7219 11.608 8.82348 11.5498 8.93326 11.5498H11.5286C13.2461 11.5498 14.5511 10.0055 14.2646 8.31205C14.0387 6.97712 12.8825 6.00006 11.5286 6.00006H6.90584C6.45789 6.00006 6.0756 6.32391 6.00196 6.76577L5.01238 12.7032C4.92158 13.248 5.3417 13.7439 5.89399 13.7439ZM8.40865 7.41449C7.68455 7.41449 7.09756 8.00149 7.09756 8.72559C7.09756 9.44969 7.68455 10.0367 8.40865 10.0367H11.5298C12.2539 10.0367 12.8409 9.44969 12.8409 8.72559C12.8409 8.00149 12.2539 7.41449 11.5298 7.41449H8.40865Z" fill="#677380"/>
</svg>
