<svg width="112" height="112" viewBox="0 0 112 112" fill="none" xmlns="http://www.w3.org/2000/svg">
<circle opacity="0.3" cx="56" cy="56" r="56" fill="#FFA439"/>
<path fill-rule="evenodd" clip-rule="evenodd" d="M38.0258 18.0781C38.3307 18.9927 36.196 21.5656 34.0358 23.4433C31.8756 25.3211 28.8802 26.9189 27.9657 26.614C27.6608 25.0897 29.1589 22.0898 31.3191 20.212C33.4792 18.3342 36.8064 17.7733 38.0258 18.0781ZM48.0861 100.389C47.4764 97.0354 51.1372 89.0557 56.3576 89.4269C61.8045 89.7189 64.4045 97.4667 63.3288 100.694C63.2271 100.668 63.1252 100.643 63.0232 100.618C60.2477 99.9325 57.3824 99.2249 55.9991 92.6539C54.2063 99.825 51.1346 100.389 48.0861 100.389ZM26.6459 27.8087C26.5405 28.656 26.3679 29.4095 26.1494 30.0643C26.7149 29.7305 27.3786 29.4213 28.1406 29.1567C30.86 28.2124 32.5984 28.3823 33.4354 28.9558C33.3426 30.4053 31.7217 32.2634 29.0022 33.2077C26.501 34.0762 24.4484 33.8539 23.8573 33.0127C22.8533 32.7137 22.152 30.6438 22.502 27.8289C22.8686 24.88 24.3557 22.8382 25.7562 22.4265C26.4895 23.1446 27.0126 24.8599 26.6459 27.8087ZM20.6002 39.9801C20.6953 39.2309 20.7201 38.3856 20.6528 37.4538C20.4186 34.2113 19.4921 32.482 18.5523 31.8675C17.1371 32.6074 15.976 35.115 16.2102 38.3575C16.4338 41.4528 17.627 43.5247 18.7681 43.6319C19.5814 44.4089 21.8314 44.2105 24.3308 42.746C27.0481 41.1538 28.392 38.8148 28.183 37.2395C27.1627 36.8023 25.2611 36.9901 22.5438 38.5823C21.7824 39.0284 21.136 39.5016 20.6002 39.9801ZM18.8199 56.185C22.783 56.185 25.5267 49.7831 26.1364 47.0394C23.6976 46.4296 20.6491 47.3442 19.1248 53.4413C17.9054 47.6491 15.7714 44.6006 13.3326 43.9908C12.418 46.7345 12.1131 54.6607 18.8199 56.185ZM26.2321 56.557C26.6407 59.5904 26.244 67.165 22.1937 68.6553C14.7661 69.6194 12.0971 61.4041 12 58.2561C14.7218 57.9622 18.0492 60.2754 21.4735 65.7365C20.7386 58.9321 23.5103 56.851 26.2321 56.557ZM28.7313 78.6249C33.1483 75.8177 30.8333 67.7415 29.4901 64.721C26.7578 65.8509 24.2749 68.9869 27.0998 75.8177C21.8943 71.1948 17.7439 69.8057 15.0116 70.9357C16.0666 74.1695 21.3241 81.8763 28.7313 78.6249ZM34.9775 72.0375C37.328 74.7036 42.3411 82.4107 39.3903 86.4615C32.8385 92.1819 24.9638 85.9687 22.8403 82.9909C25.2794 80.9521 29.9844 81.0407 36.8128 84.107C31.7156 78.0093 32.5384 74.0764 34.9775 72.0375ZM51.4396 89.719C52.9639 84.2316 45.6593 78.4006 42.294 76.6105C40.16 79.6591 40.6606 84.1885 48.0777 88.3879C40.16 87.2801 35.3089 89.5704 33.6291 92.5372C36.884 94.7258 47.0194 97.933 51.4396 89.719ZM73.9751 18.3543C73.6702 19.2688 75.8049 21.8416 77.965 23.7194C80.1251 25.5971 83.1204 27.1948 84.035 26.8899C84.3398 25.3657 82.8417 22.3658 80.6816 20.4881C78.5215 18.6104 75.1945 18.0494 73.9751 18.3543ZM85.3544 28.0847C85.4598 28.9319 85.6323 29.6852 85.8508 30.3399C85.2855 30.0063 84.6219 29.6972 83.8602 29.4327C81.1408 28.4884 79.4025 28.6583 78.5654 29.2317C78.6583 30.6812 80.2791 32.5393 82.9985 33.4835C85.4999 34.352 87.5525 34.1297 88.1434 33.2884C89.1471 32.9888 89.8482 30.9192 89.4982 28.1048C89.1316 25.1561 87.6446 23.1143 86.2441 22.7027C85.5108 23.4207 84.9877 25.1359 85.3544 28.0847ZM91.4001 40.2549C91.3051 39.5059 91.2803 38.6608 91.3476 37.7293C91.5818 34.4869 92.5083 32.7577 93.4481 32.1432C94.8633 32.8831 96.0244 35.3907 95.7901 38.6331C95.5666 41.7281 94.3735 43.7999 93.2325 43.9073C92.419 44.684 90.1692 44.4855 87.6702 43.0212C84.953 41.429 83.6091 39.0901 83.818 37.5148C84.8383 37.0777 86.7399 37.2654 89.4572 38.8576C90.2183 39.3035 90.8645 39.7765 91.4001 40.2549ZM93.1805 56.4601C89.2175 56.4601 86.4739 50.0583 85.8642 47.3147C88.3029 46.705 91.3514 47.6196 92.8756 53.7165C94.095 47.9244 96.2289 44.876 98.6677 44.2663C99.5823 47.0099 99.8871 54.9359 93.1805 56.4601ZM85.7685 56.8322C85.3599 59.8655 85.7566 67.4399 89.8069 68.9301C97.2343 69.8942 99.9032 61.6791 100 58.5312C97.2785 58.2373 93.9513 60.5504 90.527 66.0114C91.2619 59.2071 88.4902 57.1261 85.7685 56.8322ZM83.2696 78.8992C78.8526 76.0921 81.1676 68.0161 82.5108 64.9957C85.243 66.1256 87.7258 69.2615 84.901 76.0921C90.1064 71.4693 94.2567 70.0803 96.9889 71.2102C95.9339 74.4439 90.6766 82.1506 83.2696 78.8992ZM77.0236 72.312C74.6732 74.9781 69.6602 82.6849 72.611 86.7357C79.1626 92.4559 87.0371 86.2428 89.1606 83.2652C86.7215 81.2263 82.0167 81.315 75.1884 84.3812C80.2854 78.2836 79.4627 74.3508 77.0236 72.312ZM60.5619 89.993C59.0377 84.5058 66.3421 78.675 69.7073 76.8849C71.8412 79.9334 71.3406 84.4627 63.9237 88.662C71.8412 87.5543 76.6922 89.8444 78.3719 92.8112C75.1171 94.9997 64.982 98.2068 60.5619 89.993Z" fill="#FFA439"/>
<g opacity="0.65">
<path d="M50.6163 49.2033C52.1046 49.2033 53.3111 47.9958 53.3111 46.5062C53.3111 45.0167 52.1046 43.8092 50.6163 43.8092C49.128 43.8092 47.9215 45.0167 47.9215 46.5062C47.9215 47.9958 49.128 49.2033 50.6163 49.2033Z" fill="#FFA439"/>
<path d="M63.3512 46.8534C63.6887 47.0269 64.0902 46.7818 64.0902 46.4024V45.8229C64.0902 45.5905 63.9602 45.3775 63.7535 45.2713C62.3599 44.5549 60.7157 44.5133 59.2876 45.1581L59.0561 45.2626C58.8112 45.3732 58.6538 45.6171 58.6538 45.8858V46.3467C58.6538 46.7624 59.0829 47.0395 59.4618 46.8684L59.6998 46.7609C60.8674 46.2337 62.2118 46.2677 63.3512 46.8534Z" fill="#FFA439"/>
</g>
<path opacity="0.65" d="M74.1104 60.857L72.5964 51.7234L72.2086 52.4448C70.2596 56.0698 66.6011 58.455 62.4979 58.7757C62.1454 58.8032 61.9434 59.1901 62.1222 59.4951L64.2274 63.0845C64.8247 64.103 65.9169 64.7286 67.0976 64.7286H70.8278C72.8828 64.7286 74.4465 62.8843 74.1104 60.857Z" fill="#FFA439"/>
<path fill-rule="evenodd" clip-rule="evenodd" d="M41.0906 64.7287H44.903C46.0835 64.7287 47.1756 64.1033 47.7729 63.0851L51.1575 57.3166C51.3593 56.9727 51.7281 56.7615 52.1268 56.7615H61.5509C67.7873 56.7615 72.5262 51.1536 71.4858 45.0045C70.6657 40.1571 66.4672 36.6093 61.5509 36.6093H44.7648C43.1382 36.6093 41.7501 37.7852 41.4827 39.3897L37.8893 60.9497C37.5596 62.9279 39.0851 64.7287 41.0906 64.7287ZM50.2218 41.7453C47.5925 41.7453 45.461 43.8768 45.461 46.5062C45.461 49.1355 47.5925 51.267 50.2218 51.267H61.5554C64.1847 51.267 66.3162 49.1355 66.3162 46.5062C66.3162 43.8768 64.1847 41.7453 61.5554 41.7453H50.2218Z" fill="#FFA439"/>
</svg>
