<svg width="112" height="112" viewBox="0 0 112 112" fill="none" xmlns="http://www.w3.org/2000/svg">
<path d="M99.1 30.6552L99.1001 30.6594C99.1054 30.9427 99.1096 31.2271 99.1138 31.5113C99.1291 32.5421 99.1442 33.5692 99.2138 34.5239C99.3025 35.7405 99.4823 36.8946 99.8904 37.847C100.295 38.7904 101.008 39.7853 101.836 40.7715C102.668 41.762 103.642 42.7737 104.59 43.7475C107.922 47.2302 111.5 51.0355 111.5 56C111.5 60.9646 107.922 64.7699 104.59 68.2527C103.642 69.2264 102.643 70.2628 101.799 71.2655C100.961 72.2604 100.241 73.262 99.8848 74.1667C99.5327 75.0606 99.3533 76.2056 99.2522 77.4282C99.1508 78.6546 99.1253 80.003 99.1005 81.3195L99.1003 81.3284L99.1001 81.3406L99.1 81.3448C99.0496 86.2356 98.9293 91.5636 95.2464 95.2464C91.5636 98.9293 86.2356 99.0496 81.3448 99.1L81.3406 99.1001C81.0573 99.1054 80.7729 99.1096 80.4887 99.1138C79.4579 99.1291 78.4308 99.1442 77.4761 99.2138C76.2595 99.3025 75.1054 99.4823 74.153 99.8904C73.2096 100.295 72.2147 101.008 71.2285 101.836C70.2381 102.668 69.2265 103.642 68.2528 104.59C64.7699 107.922 60.9646 111.5 56 111.5C51.0355 111.5 47.2302 107.922 43.7475 104.59C42.7738 103.642 41.7372 102.643 40.7345 101.799C39.7396 100.961 38.738 100.241 37.8333 99.8848C36.9394 99.5327 35.7944 99.3533 34.5718 99.2522C33.3454 99.1508 31.997 99.1253 30.6805 99.1005L30.6716 99.1003L30.6594 99.1001L30.6552 99.1C25.7644 99.0496 20.4364 98.9293 16.7536 95.2464C13.0707 91.5636 12.9504 86.2356 12.9 81.3448L12.8999 81.3406C12.8946 81.0573 12.8904 80.7729 12.8862 80.4888C12.871 79.458 12.8558 78.4308 12.7862 77.4761C12.6975 76.2595 12.5177 75.1054 12.1096 74.153C11.7053 73.2096 10.9923 72.2147 10.1642 71.2285C9.33251 70.2381 8.35856 69.2265 7.40986 68.2529C4.07846 64.77 0.5 60.9647 0.5 56C0.5 51.0353 4.07846 47.23 7.40986 43.7471C8.35846 42.7736 9.35728 41.7371 10.2013 40.7345C11.0387 39.7396 11.7588 38.738 12.1152 37.8333C12.4673 36.9394 12.6467 35.7944 12.7478 34.5717C12.8492 33.3456 12.8747 31.9973 12.8995 30.681L12.8997 30.6716L12.8997 30.6715L12.8999 30.6595H12.8999L12.9 30.6552C12.9504 25.7644 13.0707 20.4364 16.7536 16.7536C20.4364 13.0707 25.7644 12.9504 30.6552 12.9L30.6594 12.8999C30.9427 12.8946 31.2271 12.8904 31.5112 12.8862C32.542 12.871 33.5692 12.8558 34.5239 12.7862C35.7405 12.6975 36.8946 12.5177 37.847 12.1096C38.7904 11.7053 39.7853 10.9923 40.7715 10.1642C41.7619 9.33251 42.7735 8.35856 43.7471 7.40986C47.23 4.07846 51.0353 0.5 56 0.5C60.9647 0.5 64.77 4.07846 68.2529 7.40986C69.2264 8.35846 70.2629 9.35728 71.2655 10.2013C72.2604 11.0387 73.262 11.7588 74.1667 12.1152C75.0606 12.4673 76.2056 12.6467 77.4283 12.7478C78.6544 12.8492 80.0027 12.8747 81.319 12.8995L81.3284 12.8997L81.3405 12.8999L81.3448 12.9C86.2356 12.9504 91.5636 13.0707 95.2464 16.7536C98.9293 20.4364 99.0496 25.7644 99.1 30.6552Z" fill="#D9D9D9"/>
<path d="M99.1 30.6552L99.1001 30.6594C99.1054 30.9427 99.1096 31.2271 99.1138 31.5113C99.1291 32.5421 99.1442 33.5692 99.2138 34.5239C99.3025 35.7405 99.4823 36.8946 99.8904 37.847C100.295 38.7904 101.008 39.7853 101.836 40.7715C102.668 41.762 103.642 42.7737 104.59 43.7475C107.922 47.2302 111.5 51.0355 111.5 56C111.5 60.9646 107.922 64.7699 104.59 68.2527C103.642 69.2264 102.643 70.2628 101.799 71.2655C100.961 72.2604 100.241 73.262 99.8848 74.1667C99.5327 75.0606 99.3533 76.2056 99.2522 77.4282C99.1508 78.6546 99.1253 80.003 99.1005 81.3195L99.1003 81.3284L99.1001 81.3406L99.1 81.3448C99.0496 86.2356 98.9293 91.5636 95.2464 95.2464C91.5636 98.9293 86.2356 99.0496 81.3448 99.1L81.3406 99.1001C81.0573 99.1054 80.7729 99.1096 80.4887 99.1138C79.4579 99.1291 78.4308 99.1442 77.4761 99.2138C76.2595 99.3025 75.1054 99.4823 74.153 99.8904C73.2096 100.295 72.2147 101.008 71.2285 101.836C70.2381 102.668 69.2265 103.642 68.2528 104.59C64.7699 107.922 60.9646 111.5 56 111.5C51.0355 111.5 47.2302 107.922 43.7475 104.59C42.7738 103.642 41.7372 102.643 40.7345 101.799C39.7396 100.961 38.738 100.241 37.8333 99.8848C36.9394 99.5327 35.7944 99.3533 34.5718 99.2522C33.3454 99.1508 31.997 99.1253 30.6805 99.1005L30.6716 99.1003L30.6594 99.1001L30.6552 99.1C25.7644 99.0496 20.4364 98.9293 16.7536 95.2464C13.0707 91.5636 12.9504 86.2356 12.9 81.3448L12.8999 81.3406C12.8946 81.0573 12.8904 80.7729 12.8862 80.4888C12.871 79.458 12.8558 78.4308 12.7862 77.4761C12.6975 76.2595 12.5177 75.1054 12.1096 74.153C11.7053 73.2096 10.9923 72.2147 10.1642 71.2285C9.33251 70.2381 8.35856 69.2265 7.40986 68.2529C4.07846 64.77 0.5 60.9647 0.5 56C0.5 51.0353 4.07846 47.23 7.40986 43.7471C8.35846 42.7736 9.35728 41.7371 10.2013 40.7345C11.0387 39.7396 11.7588 38.738 12.1152 37.8333C12.4673 36.9394 12.6467 35.7944 12.7478 34.5717C12.8492 33.3456 12.8747 31.9973 12.8995 30.681L12.8997 30.6716L12.8997 30.6715L12.8999 30.6595H12.8999L12.9 30.6552C12.9504 25.7644 13.0707 20.4364 16.7536 16.7536C20.4364 13.0707 25.7644 12.9504 30.6552 12.9L30.6594 12.8999C30.9427 12.8946 31.2271 12.8904 31.5112 12.8862C32.542 12.871 33.5692 12.8558 34.5239 12.7862C35.7405 12.6975 36.8946 12.5177 37.847 12.1096C38.7904 11.7053 39.7853 10.9923 40.7715 10.1642C41.7619 9.33251 42.7735 8.35856 43.7471 7.40986C47.23 4.07846 51.0353 0.5 56 0.5C60.9647 0.5 64.77 4.07846 68.2529 7.40986C69.2264 8.35846 70.2629 9.35728 71.2655 10.2013C72.2604 11.0387 73.262 11.7588 74.1667 12.1152C75.0606 12.4673 76.2056 12.6467 77.4283 12.7478C78.6544 12.8492 80.0027 12.8747 81.319 12.8995L81.3284 12.8997L81.3405 12.8999L81.3448 12.9C86.2356 12.9504 91.5636 13.0707 95.2464 16.7536C98.9293 20.4364 99.0496 25.7644 99.1 30.6552Z" fill="url(#paint0_linear_22082_5326)"/>
<path d="M99.1 30.6552L99.1001 30.6594C99.1054 30.9427 99.1096 31.2271 99.1138 31.5113C99.1291 32.5421 99.1442 33.5692 99.2138 34.5239C99.3025 35.7405 99.4823 36.8946 99.8904 37.847C100.295 38.7904 101.008 39.7853 101.836 40.7715C102.668 41.762 103.642 42.7737 104.59 43.7475C107.922 47.2302 111.5 51.0355 111.5 56C111.5 60.9646 107.922 64.7699 104.59 68.2527C103.642 69.2264 102.643 70.2628 101.799 71.2655C100.961 72.2604 100.241 73.262 99.8848 74.1667C99.5327 75.0606 99.3533 76.2056 99.2522 77.4282C99.1508 78.6546 99.1253 80.003 99.1005 81.3195L99.1003 81.3284L99.1001 81.3406L99.1 81.3448C99.0496 86.2356 98.9293 91.5636 95.2464 95.2464C91.5636 98.9293 86.2356 99.0496 81.3448 99.1L81.3406 99.1001C81.0573 99.1054 80.7729 99.1096 80.4887 99.1138C79.4579 99.1291 78.4308 99.1442 77.4761 99.2138C76.2595 99.3025 75.1054 99.4823 74.153 99.8904C73.2096 100.295 72.2147 101.008 71.2285 101.836C70.2381 102.668 69.2265 103.642 68.2528 104.59C64.7699 107.922 60.9646 111.5 56 111.5C51.0355 111.5 47.2302 107.922 43.7475 104.59C42.7738 103.642 41.7372 102.643 40.7345 101.799C39.7396 100.961 38.738 100.241 37.8333 99.8848C36.9394 99.5327 35.7944 99.3533 34.5718 99.2522C33.3454 99.1508 31.997 99.1253 30.6805 99.1005L30.6716 99.1003L30.6594 99.1001L30.6552 99.1C25.7644 99.0496 20.4364 98.9293 16.7536 95.2464C13.0707 91.5636 12.9504 86.2356 12.9 81.3448L12.8999 81.3406C12.8946 81.0573 12.8904 80.7729 12.8862 80.4888C12.871 79.458 12.8558 78.4308 12.7862 77.4761C12.6975 76.2595 12.5177 75.1054 12.1096 74.153C11.7053 73.2096 10.9923 72.2147 10.1642 71.2285C9.33251 70.2381 8.35856 69.2265 7.40986 68.2529C4.07846 64.77 0.5 60.9647 0.5 56C0.5 51.0353 4.07846 47.23 7.40986 43.7471C8.35846 42.7736 9.35728 41.7371 10.2013 40.7345C11.0387 39.7396 11.7588 38.738 12.1152 37.8333C12.4673 36.9394 12.6467 35.7944 12.7478 34.5717C12.8492 33.3456 12.8747 31.9973 12.8995 30.681L12.8997 30.6716L12.8997 30.6715L12.8999 30.6595H12.8999L12.9 30.6552C12.9504 25.7644 13.0707 20.4364 16.7536 16.7536C20.4364 13.0707 25.7644 12.9504 30.6552 12.9L30.6594 12.8999C30.9427 12.8946 31.2271 12.8904 31.5112 12.8862C32.542 12.871 33.5692 12.8558 34.5239 12.7862C35.7405 12.6975 36.8946 12.5177 37.847 12.1096C38.7904 11.7053 39.7853 10.9923 40.7715 10.1642C41.7619 9.33251 42.7735 8.35856 43.7471 7.40986C47.23 4.07846 51.0353 0.5 56 0.5C60.9647 0.5 64.77 4.07846 68.2529 7.40986C69.2264 8.35846 70.2629 9.35728 71.2655 10.2013C72.2604 11.0387 73.262 11.7588 74.1667 12.1152C75.0606 12.4673 76.2056 12.6467 77.4283 12.7478C78.6544 12.8492 80.0027 12.8747 81.319 12.8995L81.3284 12.8997L81.3405 12.8999L81.3448 12.9C86.2356 12.9504 91.5636 13.0707 95.2464 16.7536C98.9293 20.4364 99.0496 25.7644 99.1 30.6552Z" stroke="#707EFF"/>
<path fill-rule="evenodd" clip-rule="evenodd" d="M39.2513 21.0729C39.5354 21.9251 37.5462 24.3225 35.5333 26.0722C33.5205 27.822 30.7293 29.3108 29.8771 29.0267C29.5931 27.6064 30.989 24.811 33.0019 23.0612C35.0147 21.3115 38.115 20.7888 39.2513 21.0729ZM48.6257 97.771C48.0575 94.6463 51.4687 87.2107 56.3332 87.5565C61.4087 87.8287 63.8313 95.0481 62.829 98.0551C62.7342 98.0314 62.6393 98.0079 62.5442 97.9845C59.958 97.3458 57.2881 96.6864 55.9991 90.5635C54.3286 97.2456 51.4663 97.771 48.6257 97.771ZM28.6474 30.1399C28.5492 30.9294 28.3884 31.6313 28.1848 32.2414C28.7116 31.9305 29.3299 31.6424 30.0398 31.3959C32.5738 30.5161 34.1936 30.6744 34.9736 31.2087C34.8871 32.5594 33.3767 34.2908 30.8427 35.1707C28.512 35.98 26.5993 35.7729 26.0486 34.989C25.1132 34.71 24.4599 32.7814 24.786 30.1587C25.1277 27.411 26.5133 25.5084 27.8183 25.1248C28.5016 25.7939 28.989 27.3922 28.6474 30.1399ZM23.014 41.481C23.1026 40.7829 23.1257 39.9954 23.063 39.1273C22.8448 36.1059 21.9815 34.4945 21.1058 33.922C19.787 34.6114 18.7051 36.9481 18.9233 39.9695C19.1317 42.8537 20.2436 44.7844 21.3068 44.8842C22.0649 45.608 24.1613 45.423 26.49 44.0585C29.022 42.5748 30.2742 40.3953 30.0796 38.9274C29.1288 38.5201 27.3568 38.695 24.8248 40.1787C24.1155 40.5943 23.5132 41.0351 23.014 41.481ZM21.3553 56.5814C25.0482 56.5814 27.6048 50.616 28.1729 48.0594C25.9004 47.4912 23.0597 48.3434 21.6394 54.0248C20.5031 48.6275 18.5147 45.7868 16.2421 45.2187C15.3899 47.7753 15.1059 55.161 21.3553 56.5814ZM28.2617 56.928C28.6425 59.7545 28.2728 66.8126 24.4987 68.2013C17.5775 69.0997 15.0905 61.4446 15.0001 58.5113C17.5363 58.2373 20.6368 60.3928 23.8276 65.4816C23.1428 59.1411 25.7255 57.2019 28.2617 56.928ZM30.5907 77.4912C34.7066 74.8754 32.5495 67.3499 31.2978 64.5354C28.7518 65.5883 26.4383 68.5104 29.0705 74.8754C24.22 70.5678 20.3526 69.2734 17.8066 70.3263C18.7897 73.3396 23.6886 80.5209 30.5907 77.4912ZM36.4112 71.3527C38.6014 73.837 43.2727 81.0185 40.5231 84.7932C34.418 90.1235 27.0802 84.3339 25.1015 81.5592C27.3743 79.6594 31.7585 79.742 38.1213 82.5992C33.3717 76.9172 34.1384 73.2525 36.4112 71.3527ZM51.7505 87.8287C53.1708 82.7155 46.3643 77.2821 43.2285 75.614C41.24 78.4547 41.7065 82.6753 48.6178 86.5883C41.24 85.5561 36.7196 87.6902 35.1544 90.4547C38.1874 92.494 47.6317 95.4826 51.7505 87.8287ZM72.7491 21.3303C72.465 22.1825 74.4541 24.5799 76.4669 26.3296C78.4797 28.0793 81.2708 29.568 82.123 29.284C82.4071 27.8637 81.0111 25.0683 78.9983 23.3187C76.9855 21.569 73.8853 21.0463 72.7491 21.3303ZM83.3527 30.3971C83.4509 31.1867 83.6117 31.8888 83.8153 32.4989C83.2885 32.188 82.6702 31.8999 81.9604 31.6534C79.4264 30.7736 77.8067 30.9319 77.0267 31.4662C77.1132 32.8168 78.6235 34.5482 81.1575 35.4281C83.4887 36.2375 85.4016 36.0302 85.9518 35.2459C86.8869 34.9664 87.54 33.0381 87.214 30.4159C86.8723 27.6682 85.4867 25.7656 84.1818 25.3821C83.4985 26.0512 83.011 27.6494 83.3527 30.3971ZM88.9861 41.7376C88.8976 41.0397 88.8745 40.2522 88.9372 39.3843C89.1555 36.363 90.0187 34.7516 90.8944 34.179C92.2131 34.8684 93.2951 37.2051 93.0768 40.2264C92.8685 43.1102 91.7568 45.0407 90.6937 45.1409C89.9358 45.8648 87.8393 45.6799 85.5106 44.3153C82.9787 42.8318 81.7264 40.6523 81.9211 39.1844C82.8719 38.7771 84.6438 38.952 87.1757 40.4356C87.8849 40.8512 88.4871 41.2919 88.9861 41.7376ZM90.6449 56.8379C86.9521 56.8379 84.3956 50.8726 83.8275 48.3161C86.1 47.748 88.9406 48.6002 90.3608 54.2814C91.4971 48.8842 93.4855 46.0436 95.758 45.4755C96.6102 48.032 96.8942 55.4176 90.6449 56.8379ZM83.7384 57.1845C83.3577 60.0109 83.7274 67.0688 87.5014 68.4575C94.4224 69.3559 96.9093 61.7009 96.9997 58.7677C94.4636 58.4938 91.3632 60.6492 88.1725 65.7378C88.8572 59.3975 86.2746 57.4584 83.7384 57.1845ZM81.41 77.7467C77.2942 75.131 79.4512 67.6057 80.7029 64.7912C83.2488 65.8441 85.5623 68.7662 82.9301 75.131C87.7805 70.8234 91.6479 69.5291 94.1938 70.582C93.2107 73.5952 88.3119 80.7763 81.41 77.7467ZM75.5897 71.6089C73.3995 74.0931 68.7284 81.2745 71.4779 85.049C77.5828 90.3792 84.9204 84.5897 86.899 81.8151C84.6263 79.9153 80.2423 79.9979 73.8796 82.8551C78.6291 77.1733 77.8624 73.5087 75.5897 71.6089ZM60.2506 88.0842C58.8303 82.9711 65.6366 77.5379 68.7723 75.8699C70.7608 78.7105 70.2943 82.9309 63.3831 86.8439C70.7608 85.8117 75.281 87.9457 76.8462 90.7102C73.8133 92.7494 64.3692 95.7379 60.2506 88.0842Z" fill="#707EFF"/>
<g opacity="0.65">
<path d="M50.9827 50.0758C52.3695 50.0758 53.4937 48.9506 53.4937 47.5627C53.4937 46.1747 52.3695 45.0496 50.9827 45.0496C49.5959 45.0496 48.4717 46.1747 48.4717 47.5627C48.4717 48.9506 49.5959 50.0758 50.9827 50.0758Z" fill="#707EFF"/>
<path d="M62.8493 47.8862C63.1637 48.0478 63.5378 47.8195 63.5378 47.4659V46.926C63.5378 46.7094 63.4167 46.5109 63.2241 46.4119C61.9255 45.7444 60.3934 45.7056 59.0627 46.3065L58.8471 46.4039C58.6188 46.5069 58.4721 46.7341 58.4721 46.9846V47.414C58.4721 47.8014 58.872 48.0596 59.225 47.9002L59.4468 47.8C60.5348 47.3087 61.7875 47.3405 62.8493 47.8862Z" fill="#707EFF"/>
</g>
<path opacity="0.65" d="M72.8749 60.9349L71.4641 52.4241L71.1027 53.0963C69.2866 56.4741 65.8776 58.6967 62.0542 58.9955C61.7258 59.0211 61.5375 59.3817 61.7041 59.6658L63.6657 63.0105C64.2223 63.9595 65.2401 64.5425 66.3403 64.5425H69.8161C71.7309 64.5425 73.188 62.824 72.8749 60.9349Z" fill="#707EFF"/>
<path fill-rule="evenodd" clip-rule="evenodd" d="M42.1069 64.5425H45.6594C46.7593 64.5425 47.777 63.9597 48.3336 63.011L51.4874 57.6358C51.6754 57.3154 52.0191 57.1186 52.3906 57.1186H61.1721C66.9833 57.1186 71.399 51.893 70.4296 46.1633C69.6654 41.6464 65.7531 38.3405 61.1721 38.3405H45.5306C44.0149 38.3405 42.7214 39.4362 42.4722 40.9313L39.1239 61.0212C38.8167 62.8645 40.2382 64.5425 42.1069 64.5425ZM50.6155 43.1263C48.1655 43.1263 46.1793 45.1125 46.1793 47.5625C46.1793 50.0126 48.1655 51.9987 50.6155 51.9987H61.1763C63.6263 51.9987 65.6125 50.0126 65.6125 47.5625C65.6125 45.1125 63.6263 43.1263 61.1763 43.1263H50.6155Z" fill="#707EFF"/>
<path d="M62 18.5651C62.0016 18.7829 61.9353 18.9959 61.8104 19.1744C61.6854 19.3529 61.508 19.488 61.3027 19.5611L57.8364 20.8361L56.5615 24.3024C56.486 24.5057 56.3501 24.6811 56.1721 24.8049C55.994 24.9287 55.7823 24.9951 55.5654 24.9951C55.3485 24.9951 55.1369 24.9287 54.9588 24.8049C54.7807 24.6811 54.6448 24.5057 54.5694 24.3024L53.2944 20.8361L49.8281 19.5611C49.6248 19.4857 49.4494 19.3498 49.3256 19.1717C49.2018 18.9936 49.1354 18.782 49.1354 18.5651C49.1354 18.3482 49.2018 18.1365 49.3256 17.9584C49.4494 17.7804 49.6248 17.6445 49.8281 17.569L53.2944 16.294L54.5694 12.8278C54.6448 12.6244 54.7807 12.4491 54.9588 12.3252C55.1369 12.2014 55.3485 12.135 55.5654 12.135C55.7823 12.135 55.994 12.2014 56.1721 12.3252C56.3501 12.4491 56.486 12.6244 56.5615 12.8278L57.8364 16.294L61.3027 17.569C61.508 17.6421 61.6854 17.7772 61.8104 17.9557C61.9353 18.1342 62.0016 18.3472 62 18.5651Z" fill="#707EFF"/>
<rect opacity="0.5" x="6.14258" y="63.9993" width="100.409" height="8.05906" rx="4.02953" transform="rotate(-30 6.14258 63.9993)" fill="url(#paint1_linear_22082_5326)"/>
<rect opacity="0.5" x="11.7899" y="79.7482" width="97.1536" height="11.8388" rx="5.91941" transform="rotate(-30 11.7899 79.7482)" fill="url(#paint2_linear_22082_5326)"/>
<defs>
<linearGradient id="paint0_linear_22082_5326" x1="19" y1="18" x2="87.5" y2="96.5" gradientUnits="userSpaceOnUse">
<stop stop-color="#D5FFE8"/>
<stop offset="0.215" stop-color="#B7FEF5"/>
<stop offset="0.425" stop-color="#FFD7F4"/>
<stop offset="0.665" stop-color="#E8C1FF"/>
<stop offset="0.865" stop-color="#BCCBFE"/>
<stop offset="1" stop-color="#CDFFED"/>
</linearGradient>
<linearGradient id="paint1_linear_22082_5326" x1="105.613" y1="64.8052" x2="102.496" y2="83.7365" gradientUnits="userSpaceOnUse">
<stop stop-color="white"/>
<stop offset="1" stop-color="white" stop-opacity="0.34"/>
</linearGradient>
<linearGradient id="paint2_linear_22082_5326" x1="108.036" y1="80.9321" x2="101.316" y2="107.817" gradientUnits="userSpaceOnUse">
<stop stop-color="white"/>
<stop offset="1" stop-color="white" stop-opacity="0.34"/>
</linearGradient>
</defs>
</svg>
