<svg width="112" height="112" viewBox="0 0 112 112" fill="none" xmlns="http://www.w3.org/2000/svg">
<rect x="0.5" y="0.5" width="111" height="111" rx="55.5" stroke="#FFC700"/>
<circle opacity="0.3" cx="56" cy="56" r="56" fill="#FFC700"/>
<path fill-rule="evenodd" clip-rule="evenodd" d="M38.0259 18.0782C38.3308 18.9928 36.196 21.5656 34.0359 23.4434C31.8757 25.3212 28.8803 26.9189 27.9658 26.6141C27.6609 25.0898 29.159 22.0899 31.3192 20.2121C33.4793 18.3343 36.8065 17.7733 38.0259 18.0782ZM48.086 100.389C47.4762 97.0355 51.137 89.0558 56.3575 89.4269C61.8044 89.719 64.4043 97.4668 63.3287 100.694C63.2271 100.668 63.1253 100.643 63.0234 100.618L63.023 100.618C60.2476 99.9325 57.3823 99.2249 55.9989 92.6539C54.2062 99.825 51.1345 100.389 48.086 100.389ZM26.6457 27.8086C26.5403 28.6559 26.3677 29.4094 26.1492 30.0641C26.7146 29.7304 27.3783 29.4212 28.1402 29.1566C30.8597 28.2124 32.598 28.3823 33.4351 28.9557C33.3423 30.4052 31.7214 32.2633 29.0019 33.2076C26.5006 34.0761 24.448 33.8539 23.857 33.0126C22.853 32.7134 22.1517 30.6436 22.5017 27.8288C22.8684 24.88 24.3555 22.8381 25.7559 22.4265C26.4893 23.1445 27.0123 24.8598 26.6457 27.8086ZM20.6003 39.98C20.6954 39.2308 20.7202 38.3855 20.6529 37.4538C20.4187 34.2113 19.4922 32.4819 18.5524 31.8675C17.1372 32.6074 15.976 35.115 16.2103 38.3575C16.4339 41.4526 17.627 43.5245 18.768 43.6319C19.5813 44.4089 21.8314 44.2105 24.3308 42.746C27.0481 41.1538 28.3919 38.8148 28.183 37.2395C27.1627 36.8023 25.261 36.9901 22.5437 38.5823C21.7824 39.0284 21.136 39.5015 20.6003 39.98ZM18.8199 56.1851C22.783 56.1851 25.5267 49.7832 26.1364 47.0394C23.6976 46.4297 20.649 47.3443 19.1248 53.4414C17.9053 47.6492 15.7714 44.6006 13.3325 43.9909C12.418 46.7346 12.1131 54.6608 18.8199 56.1851ZM26.2321 56.5571C26.6407 59.5905 26.244 67.1651 22.1936 68.6553C14.766 69.6195 12.097 61.4042 12 58.2562C14.7218 57.9623 18.0491 60.2754 21.4735 65.7366C20.7386 58.9322 23.5103 56.8511 26.2321 56.5571ZM28.7312 78.625C33.1483 75.8177 30.8333 67.7416 29.4901 64.721C26.7578 65.851 24.2749 68.987 27.0998 75.8177C21.8943 71.1949 17.7438 69.8058 15.0115 70.9358C16.0666 74.1696 21.324 81.8764 28.7312 78.625ZM34.9774 72.0376C37.3279 74.7037 42.341 82.4108 39.3902 86.4616C32.8384 92.182 24.9636 85.9687 22.8401 82.991C25.2792 80.9522 29.9842 81.0408 36.8127 84.1071C31.7155 78.0093 32.5383 74.0765 34.9774 72.0376ZM51.4394 89.7191C52.9637 84.2317 45.6592 78.4007 42.2938 76.6106C40.1599 79.6591 40.6605 84.1885 48.0776 88.388C40.1598 87.2802 35.3087 89.5704 33.629 92.5373C36.8839 94.7259 47.0193 97.9331 51.4394 89.7191ZM73.9748 18.3544C73.67 19.2689 75.8046 21.8417 77.9647 23.7194C80.1248 25.5972 83.1202 27.1949 84.0347 26.89C84.3395 25.3658 82.8415 22.3659 80.6814 20.4882C78.5213 18.6105 75.1942 18.0495 73.9748 18.3544ZM85.3543 28.0848C85.4596 28.9321 85.6322 29.6854 85.8507 30.3402C85.2853 30.0065 84.6217 29.6973 83.8599 29.4328C81.1406 28.4886 79.4022 28.6584 78.5652 29.2319C78.658 30.6813 80.2789 32.5394 82.9983 33.4837C85.4996 34.3522 87.5522 34.1299 88.1431 33.2885C89.1469 32.9892 89.8481 30.9195 89.4981 28.105C89.1314 25.1562 87.6444 23.1144 86.244 22.7028C85.5107 23.4208 84.9876 25.1361 85.3543 28.0848ZM91.3998 40.2552C91.3048 39.5061 91.28 38.661 91.3473 37.7295C91.5815 34.4871 92.508 32.7578 93.4477 32.1434C94.8629 32.8832 96.024 35.3908 95.7898 38.6333C95.5662 41.7283 94.3731 43.8002 93.2321 43.9074C92.4186 44.6842 90.1688 44.4857 87.6698 43.0214C84.9525 41.4292 83.6087 39.0902 83.8176 37.515C84.8379 37.0778 86.7395 37.2656 89.4567 38.8577C90.2179 39.3037 90.8642 39.7768 91.3998 40.2552ZM93.1801 56.4602C89.2171 56.4602 86.4735 50.0584 85.8638 47.3148C88.3026 46.7051 91.351 47.6197 92.8753 53.7166C94.0946 47.9245 96.2286 44.8761 98.6673 44.2664C99.5819 47.01 99.8867 54.9359 93.1801 56.4602ZM85.7683 56.8322C85.3597 59.8655 85.7564 67.4399 89.8066 68.9302C97.234 69.8943 99.9029 61.6792 100 58.5313C97.2783 58.2374 93.951 60.5505 90.5267 66.0115C91.2616 59.2072 88.49 57.1262 85.7683 56.8322ZM83.2693 78.8993C78.8524 76.0922 81.1673 68.0162 82.5105 64.9958C85.2427 66.1257 87.7255 69.2616 84.9007 76.0922C90.1061 71.4694 94.2564 70.0804 96.9887 71.2103C95.9337 74.444 90.6763 82.1506 83.2693 78.8993ZM77.0234 72.3121C74.6729 74.9782 69.6599 82.685 72.6107 86.7358C79.1623 92.456 87.0369 86.2429 89.1603 83.2652C86.7212 81.2264 82.0164 81.3151 75.1881 84.3813C80.2851 78.2837 79.4624 74.3509 77.0234 72.3121ZM60.5617 89.9931C59.0374 84.5059 66.3418 78.6751 69.707 76.885C71.841 79.9335 71.3403 84.4628 63.9234 88.6621C71.841 87.5544 76.692 89.8445 78.3717 92.8113C75.1168 94.9998 64.9817 98.2069 60.5617 89.9931Z" fill="#FFC700"/>
<g opacity="0.65">
<path d="M50.6159 49.2033C52.1042 49.2033 53.3107 47.9958 53.3107 46.5062C53.3107 45.0167 52.1042 43.8092 50.6159 43.8092C49.1276 43.8092 47.9211 45.0167 47.9211 46.5062C47.9211 47.9958 49.1276 49.2033 50.6159 49.2033Z" fill="#FFC700"/>
<path d="M63.3508 46.8534C63.6883 47.0269 64.0898 46.7818 64.0898 46.4024V45.8229C64.0898 45.5905 63.9598 45.3775 63.7531 45.2713C62.3595 44.5549 60.7153 44.5133 59.2872 45.1581L59.0558 45.2626C58.8108 45.3732 58.6534 45.6171 58.6534 45.8858V46.3467C58.6534 46.7624 59.0825 47.0395 59.4614 46.8684L59.6994 46.7609C60.8671 46.2337 62.2114 46.2677 63.3508 46.8534Z" fill="#FFC700"/>
</g>
<path opacity="0.65" d="M74.1101 60.857L72.596 51.7234L72.2082 52.4448C70.2593 56.0698 66.6007 58.455 62.4975 58.7757C62.1451 58.8032 61.943 59.1901 62.1219 59.4951L64.227 63.0845C64.8243 64.103 65.9166 64.7286 67.0973 64.7286H70.8274C72.8824 64.7286 74.4461 62.8843 74.1101 60.857Z" fill="#FFC700"/>
<path fill-rule="evenodd" clip-rule="evenodd" d="M41.0905 64.7287H44.9029C46.0834 64.7287 47.1754 64.1033 47.7728 63.0851L51.1574 57.3166C51.3592 56.9727 51.728 56.7615 52.1267 56.7615H61.5508C67.7872 56.7615 72.5261 51.1536 71.4857 45.0045C70.6656 40.1571 66.467 36.6093 61.5508 36.6093H44.7647C43.1381 36.6093 41.7499 37.7852 41.4825 39.3897L37.8892 60.9497C37.5595 62.9279 39.085 64.7287 41.0905 64.7287ZM50.2217 41.7453C47.5924 41.7453 45.4609 43.8768 45.4609 46.5062C45.4609 49.1355 47.5924 51.267 50.2217 51.267H61.5553C64.1846 51.267 66.3161 49.1355 66.3161 46.5062C66.3161 43.8768 64.1846 41.7453 61.5553 41.7453H50.2217Z" fill="#FFC700"/>
</svg>
