<svg width="112" height="112" viewBox="0 0 112 112" fill="none" xmlns="http://www.w3.org/2000/svg">
<circle cx="56" cy="56" r="56" fill="#677380"/>
<path fill-rule="evenodd" clip-rule="evenodd" d="M38.0261 18.0781C38.3309 18.9927 36.1962 21.5656 34.036 23.4433C31.8759 25.3211 28.8805 26.9189 27.9659 26.614C27.661 25.0897 29.1592 22.0898 31.3193 20.212C33.4795 18.3342 36.8067 17.7733 38.0261 18.0781ZM48.0859 100.389C47.4762 97.0355 51.137 89.0558 56.3574 89.4269C61.8043 89.719 64.4043 97.4667 63.3286 100.694C63.2272 100.668 63.1255 100.643 63.0237 100.618L63.0234 100.618L63.023 100.618C60.2475 99.9325 57.3823 99.2249 55.9989 92.6539C54.2061 99.825 51.1344 100.389 48.0859 100.389ZM26.6459 27.8086C26.5405 28.656 26.3679 29.4095 26.1494 30.0643C26.7149 29.7306 27.3786 29.4213 28.1406 29.1567C30.86 28.2125 32.5984 28.3823 33.4354 28.9558C33.3426 30.4053 31.7217 32.2634 29.0022 33.2077C26.5008 34.0762 24.4482 33.8539 23.8572 33.0125C22.8533 32.7134 22.152 30.6436 22.502 27.8288C22.8687 24.8799 24.3557 22.8381 25.7562 22.4264C26.4895 23.1445 27.0126 24.8598 26.6459 27.8086ZM20.6003 39.9801C20.6954 39.2309 20.7202 38.3856 20.6529 37.4538C20.4187 34.2113 19.4922 32.482 18.5524 31.8675C17.1372 32.6074 15.9761 35.1151 16.2103 38.3576C16.4339 41.4525 17.627 43.5244 18.7679 43.6319C19.5811 44.4091 21.8313 44.2107 24.3308 42.7461C27.0481 41.1539 28.392 38.8149 28.183 37.2396C27.1627 36.8025 25.261 36.9902 22.5437 38.5824C21.7824 39.0285 21.136 39.5016 20.6003 39.9801ZM18.82 56.185C22.7831 56.185 25.5268 49.7831 26.1365 47.0394C23.6977 46.4297 20.6492 47.3443 19.1249 53.4413C17.9055 47.6491 15.7715 44.6006 13.3327 43.9909C12.4181 46.7345 12.1132 54.6607 18.82 56.185ZM26.2322 56.5577C26.6408 59.5911 26.2441 67.1657 22.1938 68.656C14.7662 69.6201 12.0972 61.4048 12.0001 58.2568C14.7219 57.9629 18.0493 60.2761 21.4736 65.7373C20.7387 58.9328 23.5104 56.8517 26.2322 56.5577ZM28.7314 78.6256C33.1485 75.8184 30.8335 67.7422 29.4902 64.7217C26.7579 65.8516 24.2751 68.9876 27.0999 75.8184C21.8944 71.1955 17.744 69.8064 15.0117 70.9364C16.0667 74.1702 21.3242 81.877 28.7314 78.6256ZM34.9775 72.0382C37.328 74.7044 42.3412 82.4114 39.3903 86.4623C32.8385 92.1827 24.9638 85.9694 22.8403 82.9917C25.2794 80.9528 29.9844 81.0414 36.8128 84.1078C31.7157 78.01 32.5384 74.0771 34.9775 72.0382ZM51.4396 89.7196C52.9639 84.2322 45.6593 78.4013 42.294 76.6111C40.16 79.6597 40.6606 84.1891 48.0777 88.3885C40.16 87.2808 35.3089 89.571 33.6291 92.5378C36.884 94.7264 47.0194 97.9336 51.4396 89.7196ZM73.9747 18.3544C73.6699 19.2689 75.8046 21.8417 77.9647 23.7195C80.1248 25.5972 83.1201 27.1949 84.0346 26.8901C84.3395 25.3658 82.8414 22.3659 80.6813 20.4882C78.5212 18.6105 75.1941 18.0495 73.9747 18.3544ZM85.3542 28.0846C85.4595 28.9319 85.6321 29.6853 85.8506 30.3401C85.2853 30.0065 84.6217 29.6973 83.8599 29.4328C81.1405 28.4886 79.4022 28.6584 78.5652 29.2318C78.658 30.6813 80.2789 32.5394 82.9983 33.4836C85.4999 34.3523 87.5527 34.1298 88.1434 33.2882C89.147 32.9885 89.8479 30.9189 89.498 28.1047C89.1313 25.156 87.6443 23.1142 86.2439 22.7026C85.5106 23.4206 84.9875 25.1358 85.3542 28.0846ZM91.3998 40.2549C91.3048 39.5059 91.28 38.6609 91.3473 37.7295C91.5816 34.4871 92.508 32.7578 93.4478 32.1433C94.863 32.8832 96.0241 35.3908 95.7899 38.6332C95.5663 41.7283 94.3731 43.8002 93.2321 43.9074C92.4185 44.684 90.1688 44.4854 87.6699 43.0212C84.9527 41.429 83.6088 39.0901 83.8177 37.5148C84.8381 37.0777 86.7396 37.2654 89.4569 38.8576C90.218 39.3036 90.8642 39.7766 91.3998 40.2549ZM93.1799 56.4603C89.2169 56.4603 86.4733 50.0585 85.8636 47.3148C88.3024 46.7051 91.3509 47.6197 92.8751 53.7166C94.0945 47.9246 96.2284 44.8761 98.6672 44.2664C99.5817 47.01 99.8866 54.936 93.1799 56.4603ZM85.7682 56.8321C85.3596 59.8654 85.7563 67.4398 89.8065 68.93C97.234 69.8942 99.9029 61.6791 99.9999 58.5312C97.2782 58.2372 93.951 60.5503 90.5267 66.0114C91.2616 59.2071 88.4899 57.126 85.7682 56.8321ZM83.2693 78.8993C78.8523 76.0921 81.1672 68.0162 82.5105 64.9957C85.2427 66.1256 87.7255 69.2615 84.9007 76.0921C90.106 71.4694 94.2564 70.0803 96.9886 71.2103C95.9336 74.444 90.6763 82.1506 83.2693 78.8993ZM77.0233 72.312C74.6728 74.978 69.6599 82.6848 72.6106 86.7356C79.1622 92.4558 87.0368 86.2427 89.1602 83.2651C86.7212 81.2263 82.0163 81.3149 75.188 84.3812C80.2851 78.2835 79.4623 74.3508 77.0233 72.312ZM60.5616 89.993C59.0373 84.5058 66.3417 78.6749 69.707 76.8849C71.8409 79.9333 71.3403 84.4626 63.9234 88.6619C71.8409 87.5542 76.6919 89.8444 78.3716 92.8111C75.1168 94.9996 64.9816 98.2068 60.5616 89.993Z" fill="#E9F0F2"/>
<g opacity="0.65">
<path d="M50.6159 49.2031C52.1042 49.2031 53.3107 47.9956 53.3107 46.5061C53.3107 45.0166 52.1042 43.8091 50.6159 43.8091C49.1276 43.8091 47.9211 45.0166 47.9211 46.5061C47.9211 47.9956 49.1276 49.2031 50.6159 49.2031Z" fill="#E9F0F2"/>
<path d="M63.3509 46.8533C63.6883 47.0268 64.0898 46.7817 64.0898 46.4023V45.8228C64.0898 45.5903 63.9599 45.3774 63.7531 45.2711C62.3595 44.5548 60.7153 44.5132 59.2872 45.158L59.0558 45.2625C58.8108 45.3731 58.6534 45.6169 58.6534 45.8857V46.3466C58.6534 46.7623 59.0825 47.0394 59.4614 46.8683L59.6994 46.7608C60.8671 46.2336 62.2114 46.2676 63.3509 46.8533Z" fill="#E9F0F2"/>
</g>
<path opacity="0.65" d="M74.1102 60.8569L72.5962 51.7233L72.2083 52.4447C70.2594 56.0697 66.6008 58.4549 62.4976 58.7755C62.1452 58.8031 61.9432 59.19 62.122 59.495L64.2271 63.0844C64.8244 64.1028 65.9167 64.7285 67.0974 64.7285H70.8275C72.8825 64.7285 74.4463 62.8842 74.1102 60.8569Z" fill="#E9F0F2"/>
<path fill-rule="evenodd" clip-rule="evenodd" d="M41.0902 64.7286H44.9027C46.0831 64.7286 47.1752 64.1031 47.7726 63.085L51.1572 57.3165C51.3589 56.9726 51.7278 56.7614 52.1264 56.7614H61.5506C67.787 56.7614 72.5258 51.1535 71.4855 45.0044C70.6654 40.157 66.4668 36.6091 61.5506 36.6091H44.7645C43.1379 36.6091 41.7497 37.7851 41.4823 39.3896L37.889 60.9496C37.5593 62.9278 39.0848 64.7286 41.0902 64.7286ZM50.2215 41.7452C47.5921 41.7452 45.4606 43.8767 45.4606 46.506C45.4606 49.1354 47.5921 51.2669 50.2215 51.2669H61.555C64.1844 51.2669 66.3159 49.1354 66.3159 46.506C66.3159 43.8767 64.1844 41.7452 61.555 41.7452H50.2215Z" fill="#E9F0F2"/>
</svg>
