<svg width="112" height="112" viewBox="0 0 112 112" fill="none" xmlns="http://www.w3.org/2000/svg">
<path d="M81.35 12.4C86.2 12.45 91.75 12.55 95.6 16.4C99.45 20.25 99.55 25.8 99.6 30.65C99.6054 30.9385 99.6097 31.2264 99.6139 31.5127C99.6486 33.856 99.6816 36.0905 100.35 37.65C101.1 39.4 103.05 41.45 104.95 43.4L81.35 12.4ZM81.35 12.4L81.3379 12.3998C78.6918 12.3498 75.9975 12.299 74.35 11.65C72.7 11 70.55 8.95 68.6 7.05L81.35 12.4ZM101.836 40.7715C102.668 41.762 103.642 42.7737 104.59 43.7475C107.922 47.2302 111.5 51.0355 111.5 56C111.5 60.9646 107.922 64.7699 104.59 68.2527C103.642 69.2264 102.643 70.2628 101.799 71.2655C100.961 72.2604 100.241 73.262 99.8848 74.1667C99.5321 75.0619 99.3527 76.2091 99.2517 77.4339C99.1507 78.6586 99.1253 80.0049 99.1005 81.3193L99.1001 81.3406L99.1 81.3448C99.0496 86.2356 98.9293 91.5636 95.2464 95.2464C91.5636 98.9293 86.2356 99.0496 81.3448 99.1L81.3406 99.1001C81.0573 99.1054 80.7729 99.1096 80.4887 99.1138C79.4579 99.1291 78.4308 99.1442 77.4761 99.2138C76.2595 99.3025 75.1054 99.4823 74.153 99.8904C73.2096 100.295 72.2147 101.008 71.2285 101.836C70.2381 102.668 69.2265 103.642 68.2528 104.59C64.7699 107.922 60.9646 111.5 56 111.5C51.0355 111.5 47.2302 107.922 43.7475 104.59C42.7738 103.642 41.7372 102.643 40.7345 101.799C39.7396 100.961 38.738 100.241 37.8333 99.8848C36.9381 99.5321 35.7909 99.3527 34.5661 99.2517C33.3414 99.1507 31.9951 99.1253 30.6807 99.1005L30.6594 99.1001L30.6552 99.1C25.7644 99.0496 20.4364 98.9293 16.7536 95.2464C13.0707 91.5636 12.9504 86.2356 12.9 81.3448L12.8999 81.3406C12.8946 81.0573 12.8904 80.7729 12.8862 80.4888C12.871 79.458 12.8558 78.4308 12.7862 77.4761C12.6975 76.2595 12.5177 75.1054 12.1096 74.153C11.7053 73.2096 10.9923 72.2147 10.1642 71.2285C9.33251 70.2381 8.35856 69.2265 7.40986 68.2529C4.07846 64.77 0.5 60.9647 0.5 56C0.5 51.0354 4.07832 47.2301 7.40966 43.7474C8.35832 42.7737 9.35722 41.7372 10.2013 40.7345C11.0387 39.7396 11.7588 38.738 12.1152 37.8333C12.4679 36.9381 12.6473 35.7909 12.7483 34.5661C12.8493 33.3414 12.8747 31.9952 12.8995 30.6808L12.8999 30.6594H12.8999L12.9 30.6552C12.9504 25.7644 13.0707 20.4364 16.7536 16.7536C20.4364 13.0707 25.7644 12.9504 30.6552 12.9L30.6594 12.8999C30.9427 12.8946 31.2271 12.8904 31.5112 12.8862C32.542 12.871 33.5692 12.8558 34.5239 12.7862C35.7405 12.6975 36.8946 12.5177 37.847 12.1096C38.7904 11.7053 39.7853 10.9923 40.7715 10.1642C41.762 9.33245 42.7736 8.35842 43.7474 7.40966C47.2301 4.07832 51.0354 0.5 56 0.5C60.9647 0.5 64.77 4.07846 68.2529 7.40986C69.2264 8.35846 70.2629 9.35728 71.2655 10.2013C72.2604 11.0387 73.262 11.7588 74.1667 12.1152C75.0619 12.4679 76.2091 12.6473 77.4339 12.7483C78.6586 12.8493 80.0048 12.8747 81.3192 12.8995L81.3406 12.8999L81.3448 12.9C86.2356 12.9504 91.5636 13.0707 95.2464 16.7536C98.9293 20.4364 99.0496 25.7644 99.1 30.6552L99.1001 30.6594C99.1054 30.9427 99.1096 31.2271 99.1138 31.5113C99.1291 32.5421 99.1442 33.5692 99.2138 34.5239C99.3025 35.7405 99.4823 36.8946 99.8904 37.847C100.295 38.7904 101.008 39.7853 101.836 40.7715ZM16.4 16.4C12.55 20.25 12.45 25.8 12.4 30.65L43.4 7.05C41.45 8.95 39.4 10.9 37.65 11.65C36.0905 12.3184 33.856 12.3514 31.5126 12.3861C31.2264 12.3903 30.9385 12.3946 30.65 12.4C25.8 12.45 20.25 12.55 16.4 16.4Z" fill="#E0E8EA" stroke="#929CA5"/>
<path d="M39.2512 21.0729C39.5352 21.9251 37.5461 24.3225 35.5332 26.0722C33.5204 27.822 30.7292 29.3108 29.877 29.0267C29.5929 27.6064 30.9889 24.811 33.0017 23.0612C35.0146 21.3115 38.1149 20.7888 39.2512 21.0729Z" fill="#929CA5"/>
<path d="M48.6256 97.771C48.0574 94.6463 51.4686 87.2107 56.3331 87.5565C61.4086 87.8287 63.8312 95.0481 62.8289 98.0551C62.7341 98.0314 62.6392 98.0079 62.5441 97.9845C59.9579 97.3458 57.288 96.6864 55.999 90.5635C54.3284 97.2456 51.4662 97.771 48.6256 97.771Z" fill="#929CA5"/>
<path d="M28.6472 30.1399C28.5491 30.9294 28.3883 31.6313 28.1847 32.2414C28.7115 31.9305 29.3298 31.6424 30.0397 31.3959C32.5737 30.5161 34.1935 30.6744 34.9735 31.2087C34.887 32.5594 33.3766 34.2908 30.8426 35.1707C28.5119 35.98 26.5992 35.7729 26.0485 34.989C25.1131 34.71 24.4598 32.7814 24.7859 30.1587C25.1275 27.411 26.5132 25.5084 27.8182 25.1248C28.5015 25.7939 28.9889 27.3922 28.6472 30.1399Z" fill="#929CA5"/>
<path d="M23.0139 41.481C23.1025 40.7829 23.1256 39.9954 23.0629 39.1273C22.8446 36.1059 21.9813 34.4945 21.1056 33.922C19.7869 34.6114 18.7049 36.9481 18.9232 39.9695C19.1315 42.8537 20.2435 44.7844 21.3067 44.8842C22.0648 45.608 24.1612 45.423 26.4899 44.0585C29.0219 42.5748 30.2741 40.3953 30.0794 38.9274C29.1287 38.5201 27.3567 38.695 24.8247 40.1787C24.1153 40.5943 23.5131 41.0351 23.0139 41.481Z" fill="#929CA5"/>
<path d="M21.3552 56.5814C25.0481 56.5814 27.6047 50.616 28.1728 48.0594C25.9003 47.4912 23.0596 48.3434 21.6393 54.0248C20.503 48.6275 18.5145 45.7868 16.242 45.2187C15.3898 47.7753 15.1057 55.161 21.3552 56.5814Z" fill="#929CA5"/>
<path d="M28.2616 56.928C28.6424 59.7545 28.2727 66.8126 24.4986 68.2013C17.5774 69.0997 15.0904 61.4446 15 58.5113C17.5362 58.2373 20.6366 60.3928 23.8275 65.4816C23.1427 59.1411 25.7254 57.2019 28.2616 56.928Z" fill="#929CA5"/>
<path d="M30.5906 77.4912C34.7065 74.8754 32.5494 67.3499 31.2977 64.5354C28.7517 65.5883 26.4382 68.5104 29.0704 74.8754C24.2199 70.5678 20.3524 69.2734 17.8064 70.3263C18.7895 73.3396 23.6885 80.5209 30.5906 77.4912Z" fill="#929CA5"/>
<path d="M36.4111 71.3527C38.6013 73.837 43.2726 81.0185 40.5229 84.7932C34.4179 90.1235 27.0801 84.3339 25.1014 81.5592C27.3742 79.6594 31.7584 79.742 38.1212 82.5992C33.3716 76.9172 34.1383 73.2525 36.4111 71.3527Z" fill="#929CA5"/>
<path d="M51.7503 87.8287C53.1707 82.7155 46.3642 77.2821 43.2283 75.614C41.2399 78.4547 41.7064 82.6753 48.6177 86.5883C41.2399 85.5561 36.7195 87.6902 35.1543 90.4547C38.1873 92.494 47.6316 95.4826 51.7503 87.8287Z" fill="#929CA5"/>
<path d="M72.7489 21.3303C72.4649 22.1825 74.454 24.5799 76.4668 26.3296C78.4796 28.0793 81.2707 29.568 82.1229 29.284C82.4069 27.8637 81.011 25.0683 78.9982 23.3187C76.9854 21.569 73.8852 21.0463 72.7489 21.3303Z" fill="#929CA5"/>
<path d="M83.3526 30.3971C83.4508 31.1867 83.6116 31.8888 83.8152 32.4989C83.2884 32.188 82.6701 31.8999 81.9603 31.6534C79.4263 30.7736 77.8065 30.9319 77.0266 31.4662C77.1131 32.8168 78.6234 34.5482 81.1574 35.4281C83.4885 36.2375 85.4014 36.0302 85.9517 35.2459C86.8868 34.9664 87.5399 33.0381 87.2138 30.4159C86.8722 27.6682 85.4866 25.7656 84.1816 25.3821C83.4983 26.0512 83.0109 27.6494 83.3526 30.3971Z" fill="#929CA5"/>
<path d="M88.986 41.7376C88.8975 41.0397 88.8744 40.2522 88.9371 39.3843C89.1553 36.363 90.0186 34.7516 90.8943 34.179C92.213 34.8684 93.2949 37.2051 93.0767 40.2264C92.8683 43.1102 91.7567 45.0407 90.6936 45.1409C89.9357 45.8648 87.8392 45.6799 85.5105 44.3153C82.9785 42.8318 81.7263 40.6523 81.921 39.1844C82.8717 38.7771 84.6437 38.952 87.1756 40.4356C87.8848 40.8512 88.4869 41.2919 88.986 41.7376Z" fill="#929CA5"/>
<path d="M90.6448 56.8379C86.952 56.8379 84.3955 50.8726 83.8274 48.3161C86.0998 47.748 88.9404 48.6002 90.3607 54.2814C91.497 48.8842 93.4854 46.0436 95.7579 45.4755C96.61 48.032 96.8941 55.4176 90.6448 56.8379Z" fill="#929CA5"/>
<path d="M83.7383 57.1845C83.3576 60.0109 83.7272 67.0688 87.5013 68.4575C94.4223 69.3559 96.9092 61.7009 96.9996 58.7677C94.4635 58.4938 91.3631 60.6492 88.1723 65.7378C88.8571 59.3975 86.2745 57.4584 83.7383 57.1845Z" fill="#929CA5"/>
<path d="M81.4098 77.7467C77.294 75.131 79.4511 67.6057 80.7028 64.7912C83.2487 65.8441 85.5622 68.7662 82.93 75.131C87.7804 70.8234 91.6477 69.5291 94.1937 70.582C93.2106 73.5952 88.3118 80.7763 81.4098 77.7467Z" fill="#929CA5"/>
<path d="M75.5896 71.6089C73.3994 74.0931 68.7282 81.2745 71.4778 85.049C77.5827 90.3792 84.9203 84.5897 86.8989 81.8151C84.6262 79.9153 80.2421 79.9979 73.8795 82.8551C78.629 77.1733 77.8623 73.5087 75.5896 71.6089Z" fill="#929CA5"/>
<path d="M60.2505 88.0842C58.8302 82.9711 65.6365 77.5379 68.7722 75.8699C70.7606 78.7105 70.2942 82.9309 63.383 86.8439C70.7606 85.8117 75.2809 87.9457 76.846 90.7102C73.8131 92.7494 64.3691 95.7379 60.2505 88.0842Z" fill="#929CA5"/>
<path d="M50.9827 50.0758C52.3695 50.0758 53.4937 48.9506 53.4937 47.5627C53.4937 46.1747 52.3695 45.0496 50.9827 45.0496C49.5959 45.0496 48.4717 46.1747 48.4717 47.5627C48.4717 48.9506 49.5959 50.0758 50.9827 50.0758Z" fill="#929CA5"/>
<path d="M62.8493 47.8862C63.1637 48.0478 63.5378 47.8195 63.5378 47.4659V46.926C63.5378 46.7094 63.4167 46.5109 63.2241 46.4119C61.9255 45.7444 60.3934 45.7056 59.0627 46.3065L58.8471 46.4039C58.6188 46.5069 58.4721 46.7341 58.4721 46.9846V47.414C58.4721 47.8014 58.872 48.0596 59.225 47.9002L59.4468 47.8C60.5348 47.3087 61.7875 47.3405 62.8493 47.8862Z" fill="#929CA5"/>
<path d="M72.8749 60.9349L71.4641 52.4241L71.1027 53.0963C69.2866 56.4741 65.8776 58.6967 62.0542 58.9955C61.7258 59.0211 61.5375 59.3817 61.7041 59.6658L63.6657 63.0105C64.2223 63.9595 65.2401 64.5425 66.3403 64.5425H69.8161C71.7309 64.5425 73.188 62.824 72.8749 60.9349Z" fill="#929CA5"/>
<path fill-rule="evenodd" clip-rule="evenodd" d="M42.1069 64.5425H45.6594C46.7593 64.5425 47.777 63.9597 48.3336 63.011L51.4874 57.6358C51.6754 57.3154 52.0191 57.1186 52.3906 57.1186H61.1721C66.9833 57.1186 71.399 51.893 70.4296 46.1633C69.6654 41.6464 65.7531 38.3405 61.1721 38.3405H45.5306C44.0149 38.3405 42.7214 39.4362 42.4722 40.9313L39.1239 61.0212C38.8167 62.8645 40.2382 64.5425 42.1069 64.5425ZM50.6155 43.1263C48.1655 43.1263 46.1793 45.1125 46.1793 47.5625C46.1793 50.0126 48.1655 51.9987 50.6155 51.9987H61.1763C63.6263 51.9987 65.6125 50.0126 65.6125 47.5625C65.6125 45.1125 63.6263 43.1263 61.1763 43.1263H50.6155Z" fill="#677380"/>
<path d="M62.8646 18.5651C62.8662 18.7829 62.7999 18.9959 62.675 19.1744C62.55 19.3529 62.3726 19.488 62.1674 19.5611L58.7011 20.8361L57.4261 24.3024C57.3506 24.5057 57.2147 24.6811 57.0367 24.8049C56.8586 24.9287 56.6469 24.9951 56.4301 24.9951C56.2132 24.9951 56.0015 24.9287 55.8234 24.8049C55.6454 24.6811 55.5095 24.5057 55.434 24.3024L54.159 20.8361L50.6927 19.5611C50.4894 19.4857 50.314 19.3498 50.1902 19.1717C50.0664 18.9936 50 18.782 50 18.5651C50 18.3482 50.0664 18.1365 50.1902 17.9584C50.314 17.7804 50.4894 17.6445 50.6927 17.569L54.159 16.294L55.434 12.8278C55.5095 12.6244 55.6454 12.4491 55.8234 12.3252C56.0015 12.2014 56.2132 12.135 56.4301 12.135C56.6469 12.135 56.8586 12.2014 57.0367 12.3252C57.2147 12.4491 57.3506 12.6244 57.4261 12.8278L58.7011 16.294L62.1674 17.569C62.3726 17.6421 62.55 17.7772 62.675 17.9557C62.7999 18.1342 62.8662 18.3472 62.8646 18.5651Z" fill="#B1BBC1"/>
<rect opacity="0.5" x="6.14258" y="63.9993" width="100.409" height="8.05906" rx="4.02953" transform="rotate(-30 6.14258 63.9993)" fill="url(#paint0_linear_22089_8906)"/>
<rect opacity="0.5" x="11.3729" y="81.8342" width="97.6685" height="11.8388" rx="5.91941" transform="rotate(-30 11.3729 81.8342)" fill="url(#paint1_linear_22089_8906)"/>
<defs>
<linearGradient id="paint0_linear_22089_8906" x1="105.613" y1="64.8052" x2="102.496" y2="83.7365" gradientUnits="userSpaceOnUse">
<stop stop-color="white"/>
<stop offset="1" stop-color="white" stop-opacity="0.34"/>
</linearGradient>
<linearGradient id="paint1_linear_22089_8906" x1="108.129" y1="83.0181" x2="101.441" y2="109.919" gradientUnits="userSpaceOnUse">
<stop stop-color="white"/>
<stop offset="1" stop-color="white" stop-opacity="0.34"/>
</linearGradient>
</defs>
</svg>
