<svg width="112" height="112" viewBox="0 0 112 112" fill="none" xmlns="http://www.w3.org/2000/svg">
<circle cx="56" cy="56" r="55.5" fill="#D8DFE3" stroke="#677380"/>
<path fill-rule="evenodd" clip-rule="evenodd" d="M38.0257 18.0782C38.3306 18.9928 36.1958 21.5656 34.0357 23.4434C31.8755 25.3212 28.8801 26.9189 27.9656 26.6141C27.6607 25.0898 29.1588 22.0899 31.319 20.2121C33.4791 18.3343 36.8063 17.7733 38.0257 18.0782ZM48.086 100.389C47.4763 97.0355 51.1371 89.0558 56.3576 89.427C61.8045 89.719 64.4044 97.4668 63.3287 100.694C63.2271 100.668 63.1254 100.643 63.0235 100.618L63.0231 100.618C60.2476 99.9326 57.3824 99.225 55.999 92.654C54.2062 99.8251 51.1346 100.389 48.086 100.389ZM26.646 27.8088C26.5406 28.656 26.3681 29.4094 26.1496 30.0641C26.715 29.7305 27.3785 29.4213 28.1403 29.1568C30.8598 28.2125 32.5981 28.3824 33.4352 28.9558C33.3424 30.4053 31.7215 32.2635 29.002 33.2077C26.5007 34.0762 24.448 33.854 23.857 33.0126C22.8532 32.7132 22.1521 30.6435 22.5021 27.8289C22.8687 24.8801 24.3558 22.8383 25.7562 22.4266C26.4896 23.1447 27.0127 24.8599 26.646 27.8088ZM20.6005 39.9797C20.6955 39.2306 20.7203 38.3855 20.653 37.454C20.4188 34.2115 19.4923 32.4822 18.5525 31.8677C17.1373 32.6076 15.9761 35.1152 16.2104 38.3577C16.434 41.453 17.6272 43.5249 18.7683 43.6321C19.5818 44.4088 21.8316 44.2102 24.3306 42.7459C27.0479 41.1537 28.3918 38.8147 28.1829 37.2394C27.1626 36.8022 25.2609 36.99 22.5436 38.5822C21.7824 39.0282 21.1361 39.5012 20.6005 39.9797ZM18.8201 56.1851C22.7832 56.1851 25.5269 49.7832 26.1366 47.0395C23.6978 46.4298 20.6492 47.3443 19.125 53.4414C17.9056 47.6492 15.7716 44.6007 13.3327 43.991C12.4182 46.7346 12.1133 54.6608 18.8201 56.1851ZM26.2319 56.5571C26.6406 59.5904 26.2438 67.165 22.1935 68.6553C14.7659 69.6194 12.0969 61.4042 11.9999 58.2562C14.7217 57.9622 18.049 60.2754 21.4733 65.7366C20.7384 58.9321 23.5101 56.851 26.2319 56.5571ZM28.7314 78.625C33.1485 75.8177 30.8335 67.7416 29.4902 64.7211C26.7579 65.851 24.2751 68.987 27.1 75.8177C21.8945 71.1949 17.744 69.8058 15.0118 70.9358C16.0668 74.1696 21.3242 81.8764 28.7314 78.625ZM34.9777 72.0373C37.3282 74.7034 42.3414 82.4104 39.3905 86.4613C32.8387 92.1816 24.964 85.9684 22.8405 82.9907C25.2796 80.9518 29.9846 81.0404 36.813 84.1068C31.7159 78.009 32.5386 74.0761 34.9777 72.0373ZM51.4395 89.719C52.9638 84.2316 45.6592 78.4007 42.2939 76.6105C40.1599 79.6591 40.6605 84.1885 48.0776 88.3879C40.1599 87.2801 35.3088 89.5703 33.629 92.5372C36.8839 94.7257 47.0193 97.9329 51.4395 89.719ZM73.9747 18.3546C73.6699 19.2691 75.8045 21.8419 77.9646 23.7196C80.1247 25.5974 83.12 27.1951 84.0346 26.8902C84.3394 25.366 82.8414 22.3661 80.6813 20.4884C78.5212 18.6107 75.1941 18.0497 73.9747 18.3546ZM85.3542 28.0848C85.4596 28.9322 85.6322 29.6856 85.8507 30.3404C85.2854 30.0067 84.6218 29.6976 83.86 29.4331C81.1407 28.4888 79.4024 28.6587 78.5653 29.2321C78.6581 30.6816 80.279 32.5397 82.9984 33.4839C85.5 34.3525 87.5528 34.1301 88.1435 33.2885C89.147 32.9887 89.848 30.9192 89.4981 28.105C89.1314 25.1563 87.6444 23.1145 86.244 22.7029C85.5107 23.4209 84.9876 25.1361 85.3542 28.0848ZM91.3997 40.2553C91.3047 39.5063 91.2799 38.6612 91.3472 37.7298C91.5814 34.4874 92.5078 32.7581 93.4476 32.1436C94.8628 32.8835 96.0239 35.3911 95.7897 38.6335C95.5661 41.7281 94.3732 43.7998 93.2324 43.9076C92.4191 44.6846 90.1691 44.4862 87.6699 43.0217C84.9527 41.4296 83.6088 39.0906 83.8178 37.5154C84.8381 37.0782 86.7396 37.266 89.4569 38.8581C90.2179 39.3041 90.8641 39.777 91.3997 40.2553ZM93.1801 56.4604C89.2171 56.4604 86.4735 50.0587 85.8639 47.3151C88.3026 46.7054 91.3511 47.6199 92.8753 53.7168C94.0947 47.9248 96.2286 44.8763 98.6674 44.2666C99.5819 47.0102 99.8867 54.9362 93.1801 56.4604ZM85.7683 56.8324C85.3597 59.8657 85.7564 67.4401 89.8066 68.9303C97.234 69.8944 99.9029 61.6794 100 58.5315C97.2783 58.2375 93.951 60.5506 90.5268 66.0117C91.2617 59.2074 88.49 57.1263 85.7683 56.8324ZM83.2693 78.8993C78.8524 76.0921 81.1673 68.0162 82.5105 64.9957C85.2427 66.1257 87.7255 69.2616 84.9007 76.0921C90.1061 71.4694 94.2564 70.0804 96.9886 71.2103C95.9336 74.444 90.6763 82.1506 83.2693 78.8993ZM77.0232 72.3123C74.6728 74.9784 69.6598 82.6852 72.6105 86.7359C79.1622 92.4562 87.0367 86.2431 89.1601 83.2654C86.7211 81.2266 82.0162 81.3153 75.1879 84.3815C80.285 78.2839 79.4623 74.3511 77.0232 72.3123ZM60.5616 89.9933C59.0374 84.5061 66.3417 78.6753 69.707 76.8852C71.8409 79.9336 71.3403 84.4629 63.9234 88.6622C71.8409 87.5545 76.6919 89.8447 78.3716 92.8114C75.1168 94.9999 64.9817 98.207 60.5616 89.9933Z" fill="#929CA5"/>
<g opacity="0.65">
<path d="M50.6158 49.2035C52.1041 49.2035 53.3106 47.996 53.3106 46.5065C53.3106 45.0169 52.1041 43.8094 50.6158 43.8094C49.1275 43.8094 47.921 45.0169 47.921 46.5065C47.921 47.996 49.1275 49.2035 50.6158 49.2035Z" fill="#677380"/>
<path d="M63.3507 46.8537C63.6882 47.0271 64.0897 46.7821 64.0897 46.4026V45.8231C64.0897 45.5907 63.9597 45.3778 63.753 45.2715C62.3594 44.5552 60.7152 44.5135 59.2871 45.1584L59.0556 45.2629C58.8107 45.3735 58.6532 45.6173 58.6532 45.8861V46.3469C58.6532 46.7626 59.0824 47.0397 59.4613 46.8686L59.6993 46.7612C60.8669 46.2339 62.2113 46.268 63.3507 46.8537Z" fill="#677380"/>
</g>
<path opacity="0.65" d="M74.1099 60.8571L72.5959 51.7235L72.208 52.4449C70.2591 56.0699 66.6006 58.4551 62.4974 58.7758C62.1449 58.8033 61.9429 59.1902 62.1218 59.4952L64.2269 63.0846C64.8242 64.1031 65.9165 64.7287 67.0971 64.7287H70.8273C72.8823 64.7287 74.446 62.8844 74.1099 60.8571Z" fill="#677380"/>
<path fill-rule="evenodd" clip-rule="evenodd" d="M41.0905 64.7288H44.9029C46.0833 64.7288 47.1754 64.1033 47.7728 63.0852L51.1574 57.3167C51.3592 56.9728 51.728 56.7616 52.1266 56.7616H61.5507C67.7872 56.7616 72.526 51.1537 71.4857 45.0046C70.6656 40.1573 66.467 36.6094 61.5507 36.6094H44.7647C43.1381 36.6094 41.7499 37.7853 41.4825 39.3898L37.8892 60.9498C37.5595 62.928 39.085 64.7288 41.0905 64.7288ZM50.2217 41.7454C47.5923 41.7454 45.4609 43.8769 45.4609 46.5063C45.4609 49.1356 47.5923 51.2671 50.2217 51.2671H61.5552C64.1846 51.2671 66.3161 49.1356 66.3161 46.5063C66.3161 43.8769 64.1846 41.7454 61.5552 41.7454H50.2217Z" fill="#677380"/>
</svg>
